<svg width="36" height="36" viewBox="0 0 36 36" fill="none" xmlns="http://www.w3.org/2000/svg">
<path d="M10.5 30.375V25.6583C10.5 25.0661 10.6753 24.487 11.0038 23.9942L13.8906 19.6641C14.5624 18.6564 14.5624 17.3436 13.8906 16.3359L11.0038 12.0058C10.6753 11.513 10.5 10.9339 10.5 10.3417V5.625M10.5 30.375C8.625 30.1875 7.5 30 7.5 30M10.5 30.375C12.375 30.5625 15 30.75 18 30.75C21 30.75 23.625 30.5625 25.5 30.375M10.5 5.625C8.625 5.8125 7.5 6 7.5 6M10.5 5.625C12.375 5.4375 15 5.25 18 5.25C21 5.25 23.625 5.4375 25.5 5.625M25.5 30.375V25.6583C25.5 25.0661 25.3247 24.487 24.9961 23.9942L22.1094 19.6641C21.4376 18.6564 21.4376 17.3436 22.1094 16.3359L24.9961 12.0058C25.3247 11.513 25.5 10.9339 25.5 10.3417V5.625M25.5 30.375C27.375 30.1875 28.5 30 28.5 30M25.5 5.625C27.375 5.8125 28.5 6 28.5 6" stroke="#3062C8" stroke-width="2.5" stroke-linecap="round" stroke-linejoin="round"/>
</svg>
