<svg xmlns="http://www.w3.org/2000/svg" width="30" height="30" viewBox="0 0 30 30" fill="none">
  <g clip-path="url(#clip0_108_474)">
    <path d="M1.86908 0.41539C1.43062 0.623081 0.853696 1.1077 0.59985 1.45385C0.115234 2.1 0.115234 2.33078 0.115234 15C0.115234 27.6692 0.115234 27.9 0.59985 28.5462C1.68447 30.0231 1.38447 30 14.9999 30C28.6152 30 28.3152 30.0231 29.3999 28.5462C29.8845 27.9 29.8845 27.6692 29.8845 15C29.8845 2.33078 29.8845 2.1 29.3999 1.45385C28.3152 -0.0230713 28.6152 5.72205e-06 14.9999 5.72205e-06C3.69216 5.72205e-06 2.58447 0.0461578 1.86908 0.41539ZM20.0768 3.57693V4.84616H14.8845H9.69216V3.57693V2.3077H14.8845H20.0768V3.57693ZM27.2306 17.1923V27H14.9999H2.76908V17.1923V7.38462H14.9999H27.2306V17.1923Z" fill="#3062C8"/>
    <path d="M10.6152 12.8077V14.3077H12.2306H13.846V12.8077V11.3077H12.2306H10.6152V12.8077Z" fill="#3062C8"/>
    <path d="M16.1538 12.8077V14.3077H17.6538H19.1538V12.8077V11.3077H17.6538H16.1538V12.8077Z" fill="#3062C8"/>
    <path d="M21.4614 12.8077V14.3077H23.0768H24.6922V12.8077V11.3077H23.0768H21.4614V12.8077Z" fill="#3062C8"/>
    <path d="M5.30762 18V19.6385L6.87685 19.5693L8.423 19.5L8.49223 17.9308L8.56146 16.3846H6.923H5.30762V18Z" fill="#3062C8"/>
    <path d="M10.6615 17.9308L10.7307 19.5L12.3 19.5693L13.8461 19.6385V18V16.3846H12.2307H10.5923L10.6615 17.9308Z" fill="#3062C8"/>
    <path d="M16.1538 18V19.6154H17.6538H19.1538V18V16.3846H17.6538H16.1538V18Z" fill="#3062C8"/>
    <path d="M21.4614 18V19.6385L23.0307 19.5693L24.5768 19.5L24.646 17.9308L24.7153 16.3846H23.0768H21.4614V18Z" fill="#3062C8"/>
    <path d="M5.30762 23.0769V24.7154L6.87685 24.6462L8.423 24.5769L8.49223 23.0077L8.56146 21.4615H6.923H5.30762V23.0769Z" fill="#3062C8"/>
    <path d="M10.6152 23.0769V24.6923H12.2306H13.846V23.0769V21.4616H12.2306H10.6152V23.0769Z" fill="#3062C8"/>
    <path d="M16.1538 23.0769V24.6923H17.6538H19.1538V23.0769V21.4616H17.6538H16.1538V23.0769Z" fill="#3062C8"/>
  </g>
  <defs>
    <clipPath id="clip0_108_474">
      <rect width="30" height="30" fill="white"/>
    </clipPath>
  </defs>
</svg>