<svg width="24" height="24" viewBox="0 0 24 24" fill="none" xmlns="http://www.w3.org/2000/svg">
<path d="M13.875 15.75H12.9375V2.625C12.9375 2.3125 12.625 2 12.3125 2H11.6875C11.3359 2 11.0625 2.3125 11.0625 2.625V15.75H10.125C9.77344 15.75 9.5 16.0625 9.5 16.375V17.625C9.5 17.9766 9.77344 18.25 10.125 18.25H11.0625V21.375C11.0625 21.7266 11.3359 22 11.6875 22H12.3125C12.625 22 12.9375 21.7266 12.9375 21.375V18.25H13.875C14.1875 18.25 14.5 17.9766 14.5 17.625V16.375C14.5 16.0625 14.1875 15.75 13.875 15.75ZM7.625 5.75H6.6875V2.625C6.6875 2.3125 6.375 2 6.0625 2H5.4375C5.08594 2 4.8125 2.3125 4.8125 2.625V5.75H3.875C3.52344 5.75 3.25 6.0625 3.25 6.375V7.625C3.25 7.97656 3.52344 8.25 3.875 8.25H4.8125V21.375C4.8125 21.7266 5.08594 22 5.4375 22H6.0625C6.375 22 6.6875 21.7266 6.6875 21.375V8.25H7.625C7.9375 8.25 8.25 7.97656 8.25 7.625V6.375C8.25 6.0625 7.9375 5.75 7.625 5.75ZM20.125 10.75H19.1875V2.625C19.1875 2.3125 18.875 2 18.5625 2H17.9375C17.5859 2 17.3125 2.3125 17.3125 2.625V10.75H16.375C16.0234 10.75 15.75 11.0625 15.75 11.375V12.625C15.75 12.9766 16.0234 13.25 16.375 13.25H17.3125V21.375C17.3125 21.7266 17.5859 22 17.9375 22H18.5625C18.875 22 19.1875 21.7266 19.1875 21.375V13.25H20.125C20.4375 13.25 20.75 12.9766 20.75 12.625V11.375C20.75 11.0625 20.4375 10.75 20.125 10.75Z" fill="#414443"/>
</svg>
