<svg xmlns="http://www.w3.org/2000/svg" width="82" height="82" viewBox="0 0 82 82" fill="none">
<path d="M29.9202 11.3298C28.2928 12.2687 28.3553 16.6504 29.9828 17.5267C31.8607 18.5282 45.8195 18.3405 47.2592 17.2763C48.824 16.1496 48.824 12.6443 47.2592 11.5176C45.8195 10.4534 31.6103 10.3282 29.9202 11.3298Z" fill="#FFBB24"/>
<path d="M18.2618 15.7897C17.3228 16.2904 16.2587 17.2294 15.8831 17.9179C15.5076 18.669 15.2572 27.3698 15.2572 41.3912V63.7378C15.2572 63.7378 15.0068 67.3683 18.8877 67.3683C22.7686 67.3683 28.4022 67.3683 28.4022 67.3683C37.2282 67.3683 37.9167 67.3057 37.4786 66.2416C37.2908 65.6782 36.79 63.8629 36.4144 62.1729L35.7259 59.2309H31.7824C27.7763 59.2309 26.7121 58.5423 27.5259 56.4141C27.8389 55.7255 28.9656 55.4752 31.9076 55.4752C35.2251 55.4752 36.0389 55.2874 36.2892 54.3484C36.477 53.7851 37.103 51.9698 37.7915 50.3423L38.9182 47.4003L33.5976 47.2126C29.4037 47.0874 28.0892 46.7744 27.5885 45.9606C27.0877 45.2095 27.1503 44.6461 27.7137 43.9576C28.4022 43.1439 29.9671 42.9561 35.9137 42.9561C42.4236 42.9561 43.3625 42.8309 44.364 41.7042C46.9931 38.7622 57.5091 36.6965 62.0786 38.1988L63.4557 38.637V28.6217C63.4557 19.0446 63.3931 18.5439 62.016 16.9164C60.8266 15.5393 59.8877 15.1637 57.0083 14.9133C53.503 14.6629 53.4404 14.6629 53.4404 16.2904C53.4404 17.292 52.6266 18.8568 51.3121 20.2965L49.1839 22.6126L40.9213 22.8003C36.3518 22.9255 31.9702 22.8629 31.219 22.6752C28.7152 22.0492 25.961 19.2324 25.5228 16.9164C25.1473 14.9133 25.0221 14.7881 22.5182 14.7881C21.1411 14.8507 19.2007 15.2263 18.2618 15.7897ZM51.2495 32.9408V34.5057L39.4816 34.6935C29.4037 34.8187 27.7137 34.6935 27.4007 33.8797C27.1503 33.379 27.3381 32.5026 27.7763 32.0019C28.4648 31.1881 30.4053 31.0629 39.9198 31.1881L51.2495 31.3759V32.9408Z" fill="#3062C8"/>
<path d="M52.2665 41.8763C44.1916 43.8794 38.8084 51.2657 39.6222 59.1527C40.0603 63.4718 41.8756 66.9145 45.3184 69.9191C52.0161 75.8031 61.9687 75.0519 67.7901 68.1664C75.8023 58.8397 70.9199 44.5679 58.7764 42.0015C55.3336 41.2504 54.9581 41.2504 52.2665 41.8763ZM57.4619 51.3908C57.6497 56.7115 57.6497 56.774 60.0909 59.1527C62.7199 61.7191 63.1581 63.2214 61.7184 64.4107C60.4665 65.4122 59.0894 64.6611 55.8344 61.0931L53.2054 58.2137V53.2061C53.2054 47.3847 53.8939 45.5069 55.897 45.8199C57.1489 46.0076 57.2741 46.3832 57.4619 51.3908Z" fill="#FFBB24"/>
</svg>