<svg xmlns="http://www.w3.org/2000/svg" width="62" height="43" viewBox="0 0 62 43" fill="none">
  <path d="M11.9649 7.80505V31.4078C11.9485 32.8916 11.311 34.3094 10.1909 35.3532C9.07071 36.397 7.55839 36.9825 5.98246 36.9825C4.4065 36.9825 2.89419 36.397 1.77405 35.3532C0.6539 34.3094 0.0163893 32.8916 0 31.4078V7.80505C0.00102938 6.31126 0.632165 4.87899 1.7546 3.82328C2.87704 2.76756 4.39886 2.17485 5.98537 2.1755C6.97752 2.17302 7.95433 2.40558 8.82599 2.85178C8.83958 2.85726 8.8454 2.86397 8.85188 2.86397C8.85524 2.86744 8.85983 2.86961 8.86482 2.87006C9.36092 3.12492 9.81445 3.44723 10.2107 3.8266C10.7669 4.34833 11.2082 4.96836 11.5092 5.6511C11.8103 6.33383 11.9651 7.06584 11.9649 7.80505Z" fill="#FAFAFA"/>
  <path d="M28.2805 12.3285V36.6221C28.2805 37.3836 28.1399 38.1377 27.8665 38.8413C27.5932 39.5449 27.1926 40.1841 26.6876 40.7226C26.1826 41.2611 25.583 41.6883 24.9232 41.9797C24.2633 42.2711 23.5561 42.4211 22.8419 42.4211C22.1277 42.4211 21.4205 42.2711 20.7607 41.9797C20.1008 41.6883 19.5013 41.2611 18.9962 40.7226C18.4912 40.1841 18.0906 39.5449 17.8173 38.8413C17.544 38.1377 17.4033 37.3836 17.4033 36.6221V12.3285C17.4031 11.5665 17.5438 10.8119 17.8172 10.1079C18.0906 9.40387 18.4915 8.7642 18.9968 8.22539C19.5021 7.68657 20.102 7.25916 20.7623 6.96767C21.4225 6.67613 22.1302 6.52615 22.8449 6.52634C23.039 6.52634 23.2272 6.53888 23.4096 6.55707H23.422C24.7563 6.71175 25.9901 7.38631 26.8867 8.45126C27.7834 9.51622 28.2797 10.8967 28.2805 12.3278V12.3285Z" fill="#FAFAFA"/>
  <path d="M44.5964 5.79605V30.0958C44.5964 31.6338 44.0235 33.1087 43.0035 34.1963C41.9836 35.2838 40.6002 35.8947 39.1578 35.8947C37.7154 35.8947 36.3321 35.2838 35.3122 34.1963C34.2922 33.1087 33.7192 31.6338 33.7192 30.0958V5.79605C33.7192 5.0344 33.86 4.28022 34.1336 3.57663C34.4071 2.87304 34.808 2.23384 35.3134 1.69557C35.8187 1.1573 36.4187 0.730515 37.0788 0.439615C37.739 0.148718 38.4464 -0.000587389 39.1608 0.000236902C39.3852 -0.00222849 39.6095 0.0145522 39.8314 0.050417H39.8432C41.0393 0.204725 42.152 0.783568 43.0022 1.69382C43.5079 2.23219 43.909 2.87165 44.1826 3.57559C44.4562 4.27951 44.5968 5.03407 44.5964 5.79605Z" fill="#FAFAFA"/>
  <path d="M62 12.3284V36.6222C62 37.3837 61.8453 38.1378 61.5446 38.8413C61.244 39.5449 60.8033 40.1841 60.2478 40.7226C59.6923 41.2611 59.0328 41.6883 58.307 41.9797C57.5811 42.2711 56.8032 42.4211 56.0176 42.4211C55.232 42.4211 54.454 42.2711 53.7282 41.9797C53.0024 41.6883 52.3428 41.2611 51.7874 40.7226C51.2318 40.1841 50.7912 39.5449 50.4905 38.8413C50.1899 38.1378 50.0352 37.3837 50.0352 36.6222V12.3284C50.035 11.5664 50.1898 10.812 50.4906 10.1079C50.7914 9.40399 51.2323 8.76433 51.7881 8.22559C52.3439 7.68679 53.0039 7.25944 53.7301 6.9679C54.4563 6.67636 55.2347 6.52632 56.0208 6.52638C56.8125 6.52325 57.5965 6.67717 58.3245 6.97863H58.331C58.3343 6.9822 58.3389 6.98446 58.3439 6.9849C59.0563 7.27343 59.7028 7.6955 60.2464 8.22684C60.8043 8.76389 61.2466 9.40305 61.5477 10.1071C61.8487 10.8112 62.0024 11.5662 62 12.3284Z" fill="#FAFAFA"/>
</svg>