<svg width="50" height="50" viewBox="0 0 50 50" fill="none" xmlns="http://www.w3.org/2000/svg">
<path d="M43.7497 22.9167C43.7497 19.9405 47.9163 19.9405 47.9163 16.829C47.9163 14.4382 46.0877 12.5 43.7497 12.5C41.7771 12.5 40.053 13.8796 39.583 15.7468M43.7497 27.0834V27.1042M13.5413 43.7502H36.458C39.3345 43.7502 41.6663 41.4184 41.6663 38.5419C41.6663 30.0403 29.1663 30.2086 24.9997 30.2086C20.833 30.2086 8.33301 30.0403 8.33301 38.5419C8.33301 41.4184 10.6649 43.7502 13.5413 43.7502ZM33.333 14.5833C33.333 19.1857 29.602 22.9167 24.9997 22.9167C20.3973 22.9167 16.6663 19.1857 16.6663 14.5833C16.6663 9.98096 20.3973 6.25 24.9997 6.25C29.602 6.25 33.333 9.98096 33.333 14.5833Z" stroke="#3062C8" stroke-width="4" stroke-linecap="round" stroke-linejoin="round"/>
</svg>
