<svg width="36" height="36" viewBox="0 0 36 36" fill="none" xmlns="http://www.w3.org/2000/svg">
<path d="M4.5 12L6.6644 24.9864C7.14659 27.8795 9.64973 30 12.5828 30H23.4172C26.3503 30 28.8534 27.8795 29.3356 24.9864L31.5 12M4.5 12L10.134 16.6096C11.5256 17.7482 13.5993 17.4153 14.5647 15.8984L18 10.5M4.5 12C5.74264 12 6.75 10.9926 6.75 9.75C6.75 8.50736 5.74264 7.5 4.5 7.5C3.25736 7.5 2.25 8.50736 2.25 9.75C2.25 10.9926 3.25736 12 4.5 12ZM31.5 12L25.866 16.6096C24.4744 17.7482 22.4007 17.4153 21.4353 15.8984L18 10.5M31.5 12C32.7426 12 33.75 10.9926 33.75 9.75C33.75 8.50736 32.7426 7.5 31.5 7.5C30.2574 7.5 29.25 8.50736 29.25 9.75C29.25 10.9926 30.2574 12 31.5 12ZM18 10.5C19.2426 10.5 20.25 9.49264 20.25 8.25C20.25 7.00736 19.2426 6 18 6C16.7574 6 15.75 7.00736 15.75 8.25C15.75 9.49264 16.7574 10.5 18 10.5Z" stroke="#3062C8" stroke-width="2.5" stroke-linecap="round" stroke-linejoin="round"/>
</svg>
