<svg xmlns="http://www.w3.org/2000/svg" width="60" height="62" viewBox="0 0 60 62" fill="none">
  <g clip-path="url(#clip0_108_397)">
    <path d="M49.1997 0.516663C47.5497 1.18833 45.9997 3.565 45.9997 5.425C45.9997 6.82 45.5497 7.44 42.9997 9.50666C40.3997 11.625 39.8997 11.8317 38.9497 11.3667C37.4497 10.4883 34.8497 11.16 33.2997 12.7617C32.2497 13.795 31.9997 14.57 31.9997 16.4817C31.9997 18.755 31.8497 19.065 28.5997 22.3717C25.6497 25.42 24.9997 25.8333 23.8497 25.575C23.0997 25.3683 21.8997 25.575 20.8497 26.0917C19.1497 26.9183 18.9997 26.9183 16.5497 25.6267C14.4997 24.5417 13.9997 24.025 13.9997 22.9917C13.9997 22.2683 13.3497 20.9767 12.5497 20.0467C8.79969 15.7067 2.04969 20.15 4.19969 25.575C5.49969 28.675 8.44969 29.76 11.3997 28.21C12.6997 27.5383 12.9997 27.59 15.2497 28.83C17.2497 29.9667 17.7997 30.535 18.0497 32.0333C18.8997 36.1667 23.6997 37.6133 26.5997 34.6167C27.8997 33.2217 28.0997 32.7567 27.8997 30.7417C27.7497 28.4683 27.8497 28.3133 31.0997 24.955C34.3497 21.6483 34.5497 21.4933 36.9997 21.4933C39.1997 21.4417 39.7997 21.235 40.7997 19.995C41.5997 19.0133 41.9997 17.9283 41.9997 16.585C41.9997 14.8283 42.2497 14.4667 45.0997 12.2967C47.4997 10.4883 48.4497 10.0233 49.0997 10.385C51.3497 11.625 54.6997 10.1267 55.7997 7.38833C57.5497 3.1 53.3997 -1.24 49.1997 0.516663Z" fill="#FFBB24"/>
    <path d="M46.5997 18.7033C46.1497 19.1683 45.9997 24.335 45.9997 38.8533V58.3833H43.9997H41.9997V43.9683C41.9997 27.5383 42.4497 28.9333 36.9997 28.9333C31.5497 28.9333 31.9997 27.5383 31.9997 43.9683V58.3833H29.9997H27.9997V51.4083C27.9997 43.3483 28.0497 43.4 22.9997 43.4C17.9497 43.4 17.9997 43.3483 17.9997 51.4083V58.3833H15.9997H13.9997V47.7917C13.9997 35.5467 14.2997 36.1667 8.54975 36.1667C3.34975 36.1667 3.49975 35.805 3.49975 48.05V58.3317L2.19975 58.4867C0.449746 58.6933 -0.450254 60.0883 0.449746 61.1733C1.04975 61.8967 4.24975 62 29.9997 62C55.7497 62 58.9497 61.8967 59.5497 61.1733C60.4497 60.0883 59.5497 58.6933 57.7997 58.4867L56.4997 58.3317V39.0083C56.4997 22.165 56.3997 19.5817 55.6997 18.91C54.7497 17.8767 47.5497 17.7217 46.5997 18.7033Z" fill="#3062C8"/>
  </g>
  <defs>
    <clipPath id="clip0_108_397">
      <rect width="60" height="62" fill="white"/>
    </clipPath>
  </defs>
</svg>