<svg width="36" height="36" viewBox="0 0 36 36" fill="none" xmlns="http://www.w3.org/2000/svg">
<path d="M30.75 31.5C32.8211 31.5 34.5 29.8211 34.5 27.75C34.5 24.2588 31.5723 22.7982 28.5 22.1876M22.5 16.5C25.8137 16.5 28.5 13.8137 28.5 10.5C28.5 7.18629 25.8137 4.5 22.5 4.5M5.25 31.5002H21.75C23.8211 31.5002 25.5 29.8212 25.5 27.7502C25.5 21.629 16.5 21.7502 13.5 21.7502C10.5 21.7502 1.5 21.629 1.5 27.7502C1.5 29.8212 3.17893 31.5002 5.25 31.5002ZM19.5 10.5C19.5 13.8137 16.8137 16.5 13.5 16.5C10.1863 16.5 7.5 13.8137 7.5 10.5C7.5 7.18629 10.1863 4.5 13.5 4.5C16.8137 4.5 19.5 7.18629 19.5 10.5Z" stroke="#3062C8" stroke-width="2.5" stroke-linecap="round" stroke-linejoin="round"/>
</svg>
