<svg xmlns="http://www.w3.org/2000/svg" width="24" height="24" viewBox="0 0 24 24" fill="none">
  <path d="M18.6599 14.73H15.1099M16.8799 13V16.55M21.6299 14.75C21.6299 15.64 21.3799 16.48 20.9399 17.2C20.5213 17.9031 19.9267 18.4849 19.2148 18.8882C18.5029 19.2916 17.6981 19.5024 16.8799 19.5C16.0621 19.5003 15.2581 19.2886 14.5465 18.8855C13.835 18.4824 13.24 17.9017 12.8199 17.2C12.367 16.4632 12.1281 15.6149 12.1299 14.75C12.1299 12.13 14.2599 10 16.8799 10C19.4999 10 21.6299 12.13 21.6299 14.75Z" stroke="#555555" stroke-width="1.5" stroke-miterlimit="10" stroke-linecap="round" stroke-linejoin="round"/>
  <path d="M20.6901 4.02V6.24C20.6901 7.05 20.1801 8.06 19.6801 8.57L17.9201 10.12C17.5794 10.0389 17.2303 9.99866 16.8801 10C14.2601 10 12.1301 12.13 12.1301 14.75C12.1301 15.64 12.3801 16.48 12.8201 17.2C13.1901 17.82 13.7001 18.35 14.3201 18.73V19.07C14.3201 19.68 13.9201 20.49 13.4101 20.79L12.0001 21.7C10.6901 22.51 8.87006 21.6 8.87006 19.98V14.63C8.87006 13.92 8.46006 13.01 8.06006 12.51L4.22006 8.47C3.72006 7.96 3.31006 7.05 3.31006 6.45V4.12C3.31006 2.91 4.22006 2 5.33006 2H18.6701C19.7801 2 20.6901 2.91 20.6901 4.02Z" stroke="#555555" stroke-width="1.5" stroke-miterlimit="10" stroke-linecap="round" stroke-linejoin="round"/>
</svg>